<svg xmlns="http://www.w3.org/2000/svg" class="test"><symbol id="bankruptcy-and-rehabilitation" viewBox="0 0 484.738 484.738"><path d="M131.012 438.372h85.624v-87.557h51.467v87.557h85.624V46.366H131.012v392.006zM257.993 92.564h51.466v51.467h-51.466V92.564zm0 82.715h51.466v51.467h-51.466v-51.467zm0 82.713h51.466v51.467h-51.466v-51.467zM175.279 92.564h51.466v51.467h-51.466V92.564zm0 82.715h51.466v51.467h-51.466v-51.467zm0 82.713h51.466v51.467h-51.466v-51.467zM373.719 81.482V358.66h33.065v79.712h77.954V81.482H373.719zm70.718 239.527H397.58v-46.856h46.856v46.856zm0-75.306H397.58v-46.855h46.856v46.855zm0-75.305H397.58v-46.855h46.856v46.855zM0 438.372h77.954V358.66h33.065V81.482H0v356.89zm40.302-314.829h46.856v46.855H40.302v-46.855zm0 75.305h46.856v46.855H40.302v-46.855zm0 75.303h46.856v46.855H40.302v-46.855z"/></symbol><symbol id="business-meeting" viewBox="0 0 486.475 486.475"><g><path d="M243.155 153.048c20.469 0 37.063-16.593 37.063-37.061 0-20.473-16.594-37.065-37.063-37.065s-37.062 16.592-37.062 37.065c0 20.468 16.593 37.061 37.062 37.061zM314.813 265.096c2.517-21.161 5.787-87.428-49.273-105.667-1.104-.369-9.793-3.519-13.153-4.337l-9.131 9.398-9.047-9.394c-.042.008-.064.008-.096.015-3.442.829-12.088 3.979-13.086 4.325-55.366 19.356-51.908 84.696-49.3 105.668h-33.723v24.761h11.826v116.786h22.99V289.857h23.787c-1.767 3.093-2.616 6.724-2.198 10.483l10.951 90.897c.976 8.811 8.441 15.342 17.127 15.342.629 0 1.266-.038 1.901-.099 9.467-1.062 16.297-9.578 15.246-19.042l-9.533-77.996 13.103-5.356 12.676 5.28-9.459 78.151c-1.032 9.472 5.813 17.979 15.274 19.003a16.3 16.3 0 0 0 1.881.113c8.688 0 16.164-6.539 17.132-15.363l10.866-90.962c.413-3.736-.431-7.366-2.194-10.453h24.113v116.781h22.984V289.857h11.995v-24.761h-33.659zm-109.591.003h-4.408c-.93-6.2-4.443-34.468 4.408-55.583v55.583zm38.069-27.26h-.165l-8.988-12.238 8.988-59.744h.165l8.893 59.744-8.893 12.238zm42.458 27.26h-4.658v-55.773c9.178 21.203 5.587 49.58 4.658 55.773z"/><g><circle cx="72.203" cy="135.089" r="35.507"/><path d="M153.926 232.614c-42.317 3.135-47.829-11.66-58.142-39.287-3.601-10.104-13.588-16.935-23.111-19.287 0 0-3.733-1.121-7.701-1.044-3.826.088-8.068.975-8.068.975l-.104.007c-11.953 2.909-24.667 12.628-24.701 27.23l-.076 78.357c-.021 17.021 11.632 26.101 27.304 26.123l21.896-.026s23.25-.75 21.125 24.125c-1.521 17.807-3.854 37.696-5.71 59.028-.824 9.479 6.188 17.846 15.682 18.675.511.046 1.014.063 1.517.063 8.841 0 16.37-6.755 17.156-15.732 8.143-93.188 4.502-98.888 1.995-104.761-2.715-5.115-8.068-12.206-35.808-14.141l.029-22.993c9.62 7.367 22.558 10.845 42.242 10.845 5.047 0 10.521-.224 16.513-.657 7.582-.563 13.28-7.188 12.726-14.774-.563-7.592-7.179-13.274-14.764-12.726z"/><path d="M82.752 312.683h-23.53c-36.375 0-32.687-32.896-32.687-32.896v-69.245c0-7.325-5.935-13.258-13.268-13.258C5.938 197.284 0 203.217 0 210.542v115.402c0 4.319 2.104 8.127 5.308 10.552v69.79h15.914v-67.064h47.762v67.064h15.912v-67.288c6.295-1.035 11.113-6.461 11.113-13.046.001-7.345-5.924-13.269-13.257-13.269z"/><circle cx="414.274" cy="135.089" r="35.507"/><path d="M384.13 329.787c-2.125-24.875 21.125-24.125 21.125-24.125l21.896.026c15.672-.022 27.326-9.102 27.304-26.123l-.076-78.357c-.034-14.602-12.748-24.321-24.701-27.23l-.104-.007s-4.242-.887-8.068-.975c-3.968-.077-7.701 1.044-7.701 1.044-9.523 2.352-19.511 9.183-23.111 19.287-10.313 27.627-15.824 42.422-58.142 39.287-7.586-.548-14.2 5.134-14.763 12.725-.555 7.587 5.144 14.212 12.726 14.774 5.992.434 11.466.657 16.513.657 19.685 0 32.623-3.478 42.242-10.845l.029 22.993c-27.738 1.935-33.093 9.025-35.807 14.141-2.508 5.873-6.148 11.572 1.994 104.761.787 8.978 8.315 15.732 17.156 15.732.504 0 1.006-.017 1.518-.063 9.492-.829 16.505-9.196 15.681-18.675-1.856-21.331-4.19-41.221-5.711-59.027z"/><path d="M473.209 197.285c-7.333 0-13.267 5.933-13.267 13.258v69.245s3.688 32.896-32.688 32.896h-23.529c-7.334 0-13.26 5.924-13.259 13.27 0 6.585 4.819 12.011 11.113 13.046v67.288h15.913v-67.064h47.761v67.064h15.914v-69.79c3.203-2.425 5.308-6.232 5.308-10.552V210.543c0-7.325-5.937-13.258-13.266-13.258z"/></g></g></symbol><symbol id="civil-case" viewBox="0 0 123.539 123.538"><path d="M80.2 25.566c7.063 0 12.784-5.724 12.784-12.784S87.261 0 80.2 0c-7.058 0-12.781 5.723-12.781 12.782-.002 7.06 5.723 12.784 12.781 12.784zM95.14 68.551v2.448h-10.6v26.208h35.493V70.999h-10.6v-2.448c0-1.191-.97-2.162-2.162-2.162h-.203a4.93 4.93 0 0 0 .13-2.039c-2.97-20.24-7.464-28.908-18.494-35.672-.216-.131-.438-.225-.663-.321a14.847 14.847 0 0 0-4.656-2.05L80.2 29.513l-3.087-3.241c-.01.002-.021.002-.031.007-2.361.564-4.658 1.761-6.454 3.443a35.042 35.042 0 0 0-3.854 3.004c-3.172 2.143-5.846 4.86-8.435 7.501-5.956 6.072-9.975 9.756-17.081 9.149a5.634 5.634 0 0 0-5.19 8.715c-.312-.01-.62-.024-.933-.024-17.44 0-31.629 14.188-31.629 31.628 0 17.439 14.188 31.629 31.629 31.629 17.439 0 31.628-14.188 31.628-31.629 0-13.258-8.203-24.629-19.795-29.323 8.826-1.458 14.603-7.34 19.418-12.252.069-.072.141-.143.211-.215.279.892.519 2.105.519 2.105v15.626c0 1.334.258 2.58.715 3.727-.036.258-.06.52-.06.785l.002 47.524a5.866 5.866 0 1 0 11.73-.002l-.002-40.784c.232.01.464.029.696.029.048 0 .092-.007.141-.007l-.004 40.764a5.866 5.866 0 0 0 11.731 0V99.195h-9.332V69.377h9.828a9.962 9.962 0 0 0 .722-3.74V48.542c1.589 3.965 2.942 9.411 4.091 17.247.029.207.091.402.145.6h-.22c-1.19 0-2.159.97-2.159 2.162zm-75.89 43.571l-.001-14.487c.082.006.165.012.249.012.016 0 .031-.004.048-.004v14.494c0 .071.014.141.021.211-.108-.075-.212-.153-.317-.226zm.257-22.337h-.021l-1.096-1.499 1.096-7.326h.021l1.096 7.326-1.096 1.499zm2.91 24.279a2.087 2.087 0 0 0 1.3-1.93l.001-16.605a1.751 1.751 0 0 0 1.295.569c.582 0 1.145-.291 1.478-.805.079.15.149.301.234.454a2.086 2.086 0 0 0 3.137.631l.002 19.433c0 .32.066.623.177.902a27.189 27.189 0 0 1-7.624-2.649zm2.308-24.025a8.89 8.89 0 0 1-.576 2.014v-5.416c.213.37.379.771.49 1.203a11.04 11.04 0 0 0 .086 2.199zm4.862-4.408v6.434c-1.141-2.799-.916-4.842 0-6.434zm5.549 31.562c-.252 0-.501-.01-.75-.018.261-.393.412-.861.412-1.365l-.001-17.156c.099.004.195.012.293.012h.059v17.146c0 .506.153.979.417 1.373-.145.001-.287.008-.43.008zm-.032-27.823h-.025l-1.297-1.774 1.297-8.668h.025l1.296 8.668-1.296 1.774zm4.783 27.405c.126-.297.195-.623.195-.965l.001-19.646a2.065 2.065 0 0 0 1.532.675 2.09 2.09 0 0 0 1.836-1.091c.082-.152.152-.299.23-.447a1.761 1.761 0 0 0 2.316.584c.092-.052.178-.109.258-.175l.002 16.427c0 .941.627 1.729 1.484 1.986a27.255 27.255 0 0 1-7.854 2.652zm.708-24.724v-6.406c.907 1.584 1.132 3.619 0 6.406zm4.94-4.235a4.82 4.82 0 0 1 .488-1.188v5.437a8.966 8.966 0 0 1-.575-1.998c.109-.796.134-1.546.087-2.251zm4.846 24.752c.03-.141.046-.283.046-.434l-.001-14.5c.082.004.165.01.249.01l.048-.002-.001 14.492c0 .064.014.125.02.186-.119.082-.239.166-.361.248zm.305-22.783h-.021l-1.097-1.499 1.097-7.326h.021l1.097 7.326-1.097 1.499zm11.948-.09c0 7.414-2.955 14.146-7.74 19.098l.001-13.264a1.762 1.762 0 0 0 2.846-.353c4.979-9.15-1.812-13.314-4.043-14.683-.077-.048-.157-.081-.236-.114a5.22 5.22 0 0 0-1.654-.729l-1.132 1.139-1.099-1.154c-.003.004-.009.004-.011.004a5.277 5.277 0 0 0-1.688.741c-.078.034-.157.065-.232.113-.836.512-2.31 1.415-3.566 2.825-1.614-2.609-4.14-4.164-5.412-4.943-.091-.057-.186-.096-.279-.137a6.277 6.277 0 0 0-1.958-.86l-1.341 1.349-1.298-1.363c-.005.003-.01.003-.013.004a6.124 6.124 0 0 0-1.996.877c-.093.04-.186.076-.275.132-1.273.781-3.802 2.336-5.417 4.949-1.257-1.412-2.732-2.318-3.57-2.831-.077-.049-.156-.081-.236-.114a5.19 5.19 0 0 0-1.654-.729L19.5 80.79l-1.098-1.153-.013.004a5.299 5.299 0 0 0-1.687.74c-.078.034-.158.066-.232.113-2.231 1.367-9.022 5.531-4.043 14.684a1.762 1.762 0 0 0 2.652.532l.001 12.771c-4.61-4.92-7.441-11.525-7.441-18.785 0-15.163 12.334-27.498 27.499-27.498 15.161-.001 27.496 12.333 27.496 27.497zm-7.306 2.356v-5.416c.767 1.342.956 3.06 0 5.416zm-40.483-5.424v5.436c-.965-2.368-.774-4.092 0-5.436zM80.23 54.813h-.059l-3.083-4.22 2.386-15.961c.24-.642.342-1.324.303-2.013l.396-2.632h.058l3.086 20.605-3.087 4.221zm18.201 13.382a4.965 4.965 0 0 0 4.575 1.785 4.938 4.938 0 0 0 3.129-1.785h1.137c.199 0 .356.16.356.355v2.448H96.945V68.55c0-.195.16-.355.355-.355h1.131z"/><circle cx="35.09" cy="71.688" r="5.376"/><circle cx="50.675" cy="74.841" r="4.545"/><circle cx="19.499" cy="74.841" r="4.545"/></symbol><symbol id="claims-for-overtime" viewBox="0 0 187.852 187.852"><path d="M185.975 75.172a6.002 6.002 0 0 0-7.077-4.682 6 6 0 0 0-4.682 7.077c6.364 31.255-6.146 63.636-31.873 82.495-17.538 12.856-39.179 18.089-60.937 14.739-21.758-3.352-40.821-14.856-53.677-32.395C.999 105.938 8.919 54.523 45.385 27.791c17.538-12.855 39.18-18.088 60.937-14.739 21.13 3.255 39.701 14.217 52.531 30.91l-5.516-.793a5.996 5.996 0 0 0-6.793 5.085 6 6 0 0 0 5.085 6.793l19.915 2.864c.132.019.262.018.394.028.156.012.313.034.468.034a6.003 6.003 0 0 0 5.932-5.147l2.864-19.915a6 6 0 1 0-11.878-1.708l-.811 5.639C153.788 17.58 132.439 4.933 108.15 1.192c-24.925-3.842-49.735 2.17-69.858 16.92C18.168 32.865 4.97 54.716 1.131 79.641-2.708 104.567 3.3 129.376 18.052 149.5c14.751 20.123 36.602 33.32 61.528 37.16a96.45 96.45 0 0 0 14.691 1.131c19.833 0 39.012-6.209 55.167-18.052 29.49-21.618 43.832-58.738 36.537-94.567z"/><path d="M126.601 96.171h-20.48a14.978 14.978 0 0 0-7.633-7.633V42.504a6 6 0 0 0-12 0v46.034c-5.236 2.314-8.904 7.55-8.904 13.633 0 8.218 6.686 14.904 14.904 14.904 6.083 0 11.319-3.668 13.633-8.904h20.48a6 6 0 0 0 0-12zm-37.018 6c0-1.602 1.303-2.905 2.904-2.905s2.905 1.303 2.905 2.905-1.303 2.904-2.905 2.904-2.904-1.303-2.904-2.904z"/></symbol><symbol id="consultation-flow" viewBox="0 0 94 94"><path d="M86.75 70.981V59.5c0-6.934-4.594-17.25-17.25-17.25h-10c-7.06 0-7.717-3.464-7.75-5.25V23.02C56.014 21.178 59 16.939 59 12c0-6.626-5.373-12-12-12S35 5.374 35 12c0 4.939 2.986 9.178 7.25 11.02V37c0 1.294-.374 5.25-7.75 5.25h-10c-12.656 0-17.25 10.316-17.25 17.25v11.481C2.986 72.822 0 77.062 0 82c0 6.627 5.373 12 12 12s12-5.373 12-12c0-4.938-2.986-9.178-7.25-11.019V59.5c0-1.294.374-7.75 7.75-7.75h10c3.035 0 5.595-.459 7.75-1.237v20.469C37.986 72.822 35 77.062 35 82c0 6.627 5.373 12 12 12s12-5.373 12-12c0-4.938-2.986-9.178-7.25-11.019V50.513c2.155.778 4.715 1.237 7.75 1.237h10c7.06 0 7.717 5.964 7.75 7.75v11.481C72.986 72.822 70 77.062 70 82c0 6.627 5.373 12 12 12s12-5.373 12-12c0-4.938-2.986-9.178-7.25-11.019zM18.923 82a6.924 6.924 0 0 1-13.846 0 6.924 6.924 0 0 1 13.846 0zm21.154-70a6.924 6.924 0 0 1 13.846 0 6.924 6.924 0 0 1-13.846 0zm13.846 70a6.924 6.924 0 1 1-13.847-.001A6.924 6.924 0 0 1 53.923 82zM82 88.923a6.924 6.924 0 0 1 0-13.846 6.924 6.924 0 0 1 0 13.846z"/></symbol><symbol id="corporate-legal-services" viewBox="0 0 472.559 472.559"><path d="M316.829 127.782h27.299v27.301h-27.299zM316.829 86.112h27.299v27.3h-27.299zM364.423 233.545c1.547.72 2.48 1.159 3.068 1.442l.008-.017c2.043.979 4.02 2.151 5.939 3.453h16.25v-27.299h-17.303c-1.284 8.536-3.972 16.13-7.962 22.421zM362.39 169.956c.09.089.184.171.273.261 6.51 6.576 10.037 15.497 10.527 26.536h16.5v-27.301h-27.3v.504zM362.39 86.112h27.301v27.3H362.39zM362.39 127.782h27.301v27.301H362.39z"/><path d="M302.065 27.877V0H170.494v27.877H51.796V380h46.566l-.001-20.025H71.822v-35.908c-4.249-8.629-8.076-18.181-9.159-26.236a25.277 25.277 0 0 1 1.466-12.42c.062-.16 2.792-6.664 7.693-15.1V47.903h94.959v118.434a33.7 33.7 0 0 1 4.605 3.88c5.884 5.942 9.334 13.797 10.307 23.4 3.938-3.34 8.127-6.209 12.534-8.324l.913-4.06v-11.208c-3.667-8.78-5.64-19.082-5.765-30.434-.099-10.101 3.295-46.667 47.05-46.667s47.146 36.323 47.044 46.651c-.127 11.658-2.196 22.207-6.05 31.137v10.521l.906 4.027.002-.005c4.49 2.154 8.758 5.091 12.76 8.513.953-9.676 4.406-17.579 10.318-23.549a33.843 33.843 0 0 1 4.373-3.721V47.903h94.959v222.378c4.898 8.431 7.627 14.929 7.688 15.084a25.227 25.227 0 0 1 1.467 12.453c-1.08 8.03-4.906 17.576-9.154 26.203v35.952h-26.541v20.024h46.566V27.877H302.065zM225.287 85.87H195.14V55.722h30.147V85.87zm52.133 0h-30.147V55.722h30.147V85.87z"/><path d="M82.871 127.782h27.3v27.301h-27.3zM82.871 86.112h27.3v27.3h-27.3zM82.871 238.424h16.293c1.904-1.288 3.865-2.45 5.89-3.422.095-.045.245-.117 3.286-1.51-3.973-6.281-6.649-13.857-7.931-22.367H82.871v27.299zM82.871 196.754h16.734c.491-11.045 4.018-19.962 10.526-26.536l.039-.038v-.728h-27.3l.001 27.302zM128.431 86.112h27.3v27.3h-27.3zM128.431 127.782h27.3v27.301h-27.3zM290.647 306.793c3.398-5.368 20.486-33.006 22.766-49.953a12.46 12.46 0 0 0-.727-6.137c-2.367-6.12-19.959-41.655-40.847-51.675-.019-.01-16.269-7.544-16.269-7.544l-7.09-5.982-10.598 10.548 10.68 71.397a.945.945 0 0 1-.173.697l-11.182 15.303a.949.949 0 0 1-.764.39.949.949 0 0 1-.764-.39l-11.182-15.303a.949.949 0 0 1-.171-.697L235 196.082l-10.631-10.581-7.092 5.982s-16.161 7.389-16.565 7.582c-20.882 10.02-38.475 45.554-40.842 51.675a12.483 12.483 0 0 0-.728 6.138c2.278 16.946 19.366 44.586 22.767 49.954a12.42 12.42 0 0 0 10.507 5.773c2.165 0 4.354-.574 6.339-1.756 1 2.807 2.424 5.422 4.179 7.819l.007 138.813c.001 8.326 6.752 15.074 15.076 15.074 8.328 0 15.076-6.75 15.075-15.074l.161-122.358c1.063.09 2.124.142 3.168.142 1.008 0 2.027-.05 3.049-.135l-.002 122.352c0 8.326 6.747 15.074 15.074 15.074 8.322 0 15.074-6.748 15.074-15.072l.002-138.424c1.863-2.473 3.379-5.182 4.429-8.103a12.364 12.364 0 0 0 6.086 1.608 12.424 12.424 0 0 0 10.514-5.772zm-106.219-50.217c2.608-5.438 7.405-13.586 12.674-20.75l.008 47.998c-5.31-9.383-10.734-20.285-12.682-27.248zm91.319-20.388c5.156 7.064 9.824 15.009 12.381 20.349-1.912 6.824-7.169 17.455-12.387 26.722l.006-47.071zM268.47 139.675c.196-19.708-9.188-31.501-32.045-31.501-22.86 0-32.244 11.793-32.051 31.501.313 28.394 13.872 45.331 32.051 45.331 18.171 0 31.736-16.937 32.045-45.331z"/><path d="M376.401 336.923c2.783-4.394 16.764-27.007 18.627-40.875.23-1.694.025-3.423-.592-5.021-1.939-5.008-16.332-34.086-33.424-42.283l-13.311-6.172-5.803-4.896-8.801 8.76 8.551 57.172a.751.751 0 0 1-.135.555l-8.875 12.146c-.143.194-.367.31-.607.31s-.465-.114-.605-.31l-8.875-12.146a.76.76 0 0 1-.137-.555l8.553-57.179-8.793-8.753-2.963 2.499c2.033 4.067 3.143 6.668 3.184 6.771a22.876 22.876 0 0 1 1.332 11.285c-2.436 18.113-18.352 44.692-23.861 53.457l-1.99 2.842c-4.316 5.332-10.77 8.449-17.74 8.449h-.104v1.358a230.818 230.818 0 0 0 7.398 12.616 10.16 10.16 0 0 0 8.598 4.725c1.771 0 3.562-.47 5.188-1.438.818 2.297 1.984 4.438 3.418 6.398l.008 113.584c0 6.812 5.523 12.334 12.334 12.334 6.814 0 12.336-5.523 12.334-12.336l.133-100.117c.871.072 1.738.114 2.592.114.826 0 1.66-.04 2.496-.108l-.002 100.113c0 6.812 5.52 12.334 12.334 12.334 6.811 0 12.332-5.521 12.332-12.334l.002-113.264c1.525-2.023 2.766-4.239 3.625-6.631a10.091 10.091 0 0 0 4.98 1.316 10.15 10.15 0 0 0 8.599-4.72zm-12.195-19.257l.004-38.516c4.219 5.78 8.039 12.281 10.133 16.65-1.565 5.583-5.869 14.282-10.137 21.866zM305.812 200.178c.256 23.234 11.35 37.092 26.225 37.092 14.867 0 25.969-13.857 26.221-37.092.16-16.125-7.518-25.775-26.221-25.775-18.708 0-26.384 9.65-26.225 25.775zM174.656 314.539l-1.724-2.43c-5.274-8.353-21.63-35.439-24.105-53.844a22.945 22.945 0 0 1 1.337-11.277c.039-.105 1.18-2.778 3.268-6.944l-2.805-2.367-8.801 8.761 8.551 57.172a.747.747 0 0 1-.136.553l-8.875 12.146a.749.749 0 0 1-1.212 0l-8.875-12.146a.745.745 0 0 1-.136-.553l8.552-57.179-8.793-8.754-5.804 4.896s-13.225 6.047-13.554 6.205c-17.087 8.197-31.482 37.272-33.42 42.282a10.208 10.208 0 0 0-.594 5.021c1.864 13.867 15.844 36.482 18.628 40.875a10.16 10.16 0 0 0 8.598 4.725c1.771 0 3.562-.47 5.187-1.438a25.05 25.05 0 0 0 3.418 6.398l.006 113.584c0 6.812 5.525 12.334 12.336 12.334 6.814 0 12.335-5.523 12.334-12.336l.133-100.117c.868.072 1.736.114 2.592.114.825 0 1.658-.04 2.494-.108l-.002 100.113c0 6.812 5.52 12.334 12.333 12.334 6.812 0 12.335-5.521 12.335-12.334l.001-113.264c1.525-2.023 2.766-4.239 3.625-6.631a10.088 10.088 0 0 0 4.98 1.316c3.366 0 6.661-1.673 8.6-4.726a232 232 0 0 0 7.397-12.617v-1.288h-.106c-6.986.002-13.451-3.128-17.763-8.476zm-76.441-18.705c2.135-4.452 6.06-11.118 10.371-16.979l.008 39.272c-4.347-7.676-8.785-16.596-10.379-22.293zM114.538 200.178c.255 23.234 11.35 37.092 26.224 37.092 14.867 0 25.966-13.857 26.22-37.092.159-16.125-7.519-25.775-26.22-25.775-18.707 0-26.384 9.65-26.224 25.775z"/></symbol><symbol id="criminal-cases" viewBox="0 0 26 26"><path d="M19 24.968v1H7v-1c0-.551.449-1 1-1h2.013A2.984 2.984 0 0 1 12 21.279V9.554a1.875 1.875 0 0 1-.88-1.587h3.76c0 .67-.353 1.254-.88 1.587v11.724a2.984 2.984 0 0 1 1.987 2.689H18c.551.001 1 .45 1 1.001zm7-9.001c-.733 2.064-2.685 3.553-5 3.553s-4.267-1.49-5-3.553h1.154l3.378-8.953c.146-.39.789-.39.936 0l3.378 8.953H26zm-2.223 0L21 8.608l-2.777 7.36h5.554zM5 5.978a.997.997 0 0 0 .95-.714c.331-.126.67-.296 1.018-.472.765-.386 1.632-.825 2.532-.825.864 0 1.404.399 1.713.739-.012.086-.026.172-.026.261a1.813 1.813 0 0 0 3.626 0c0-.089-.014-.174-.026-.26.308-.339.848-.74 1.713-.74.9 0 1.767.438 2.531.824.349.176.688.346 1.019.472a.997.997 0 0 0 .95.714 1.01 1.01 0 1 0 0-2.02c-.288 0-.545.124-.729.318a13.013 13.013 0 0 1-.789-.376c-.864-.437-1.843-.932-2.982-.932-.996 0-1.69.379-2.161.787a1.806 1.806 0 0 0-.788-.506c.373-.2.635-.581.635-1.032C14.186 1.561 13 .032 13 .032s-1.186 1.529-1.186 2.184c0 .452.262.832.635 1.032a1.798 1.798 0 0 0-.788.506c-.471-.408-1.165-.787-2.161-.787-1.139 0-2.119.495-2.983.932a11.9 11.9 0 0 1-.788.376 1.006 1.006 0 0 0-1.739.692A1.01 1.01 0 0 0 5 5.978zm0 13.543c-2.315 0-4.267-1.49-5-3.553h1.154l3.378-8.953c.146-.39.789-.39.936 0l3.378 8.953H10c-.733 2.063-2.685 3.553-5 3.553zm2.777-3.554L5 8.608l-2.777 7.36h5.554z"/></symbol><symbol id="debts-and-overpaid-problem" viewBox="0 0 80.426 80.426"><path d="M43.851 36.399a597.565 597.565 0 0 0-6.488 3.177c.722.194 1.431.395 2.135.616-.334.415-.66.83-.992 1.248a81.347 81.347 0 0 0-3.13-.876c-1.067.536-2.14 1.069-3.214 1.61 1.467.367 2.92.748 4.335 1.168-.332.415-.66.837-.989 1.252a103.532 103.532 0 0 0-4.638-1.245 5555.172 5555.172 0 0 1-3.455 4.368l-2.385-.591c1.152-1.46 2.303-2.913 3.457-4.368a109.61 109.61 0 0 1-4.515-1.207l.993-1.252a94.07 94.07 0 0 0 4.215 1.129c-.002-.812-.011-1.615-.011-2.434a85.017 85.017 0 0 1-3.174-.895c.33-.419.658-.837.99-1.252.722.224 1.455.433 2.193.634.007-1.672.026-3.362.073-5.089a63.61 63.61 0 0 0 2.709.821 689.718 689.718 0 0 0-.382 7.438c3.195-1.704 6.395-3.413 9.558-5.078.92.26 1.824.534 2.715.826zm-1.465 34.18c6.801-8.586 13.599-17.175 20.405-25.758C61.126 34.635 53.984 31.369 46 29.163l-7.371 2.163c.098.022.2.041.3.062 7.318 1.562 8.965 8.244 4.724 13.602-4.088 5.158-12.488 7.008-19.806 5.445-7.324-1.562-8.968-8.241-4.723-13.6 3.078-3.885 8.595-5.89 14.258-5.981-1.257-.849-2.105-2.231-2.331-3.812l-.149-1.083a6.358 6.358 0 0 1-.049-1.264c-5.181-2.342-9.25-6.088-10.458-13.454C13.594 19.827 6.797 28.413 0 36.997c3.921 24.074 38.455 9.504 42.386 33.582zm21.559-13.398h-8.472l-2.614 3.306h11.086c3.187 0 5.787-2.596 5.787-5.782V39.371c0-2.478-.652-6.246-1.489-8.575l-6.132-17.128a5.729 5.729 0 0 0-2.972-3.271 5.736 5.736 0 0 0-4.419-.201l-18.191 6.615c-2.882 1.047-4.804 4.248-4.373 7.286l.145 1.038c.223 1.549 1.065 2.897 2.315 3.705 1.25.805 2.833 1.015 4.331.577l10.123-2.963c.566-.162 1.059-.123 1.387.128.379.283.457.769.457 1.122v1.104l3.308 1.654V21.43l-6.082 1.854-10.122 2.961c-.588.173-1.161.107-1.614-.185-.449-.292-.748-.785-.829-1.394l-.145-1.033c-.211-1.471.829-3.209 2.225-3.716l18.191-6.615a2.446 2.446 0 0 1 1.886.087c.598.283 1.05.775 1.273 1.396l6.127 17.128c.704 1.959 1.298 5.376 1.298 7.461v15.333a2.482 2.482 0 0 1-2.485 2.474zm7.572 2.818l8.909.053V34.065l-8.909-.036v25.97z"/></symbol><symbol id="divorce-and-gender-trouble" viewBox="0 0 412.138 412.138"><path d="M110.827 22.911c-49.525 22.33-44.219 121.392 5.979 135.79 10.836 6.934 24.169 7.857 38.306-3.28 44.751-35.259 26.813-164.566-44.285-132.51zM374.03 139.987c-.359-1.709-1.303-3.341-3.155-4.544-38.531-25.098-2.726-114.251-71.628-110.262-58.842 3.406-39.708 81.01-68.053 112.918-.232.262-.144.536-.302.805-2.645 1.565-4.122 5.237-1.426 7.938 12.527 12.55 29.548 15.969 46.81 16.862 2.479 8.794 15.033 15.899 23.057 16.899 7.218.9 14.363-.878 20.261-5.16 3.698-2.682 8.077-7.355 9.093-12.26 17.57-1.209 35.928-4.4 45.584-13.237 3.474-3.181 2.435-7.263-.241-9.959zM407.587 246.585c-5.323-23.378-21.2-42.237-45.383-45.489-2.495-2.727-7.225-3.681-10.014-.572-15.091 16.813-30.111 28.221-54.003 26.515-20.979-1.496-32.944-13.685-48.667-24.593-.162-2.329-1.685-4.581-4.38-4.445-28.001 1.414-46.092 17.4-51.518 44.808-8.635 43.616-1.395 92.691-.264 136.863.055 2.126.917 3.714 2.155 4.82.341 1.859 1.337 3.58 3.059 4.419 20.716 10.099 58.374 2.819 81.257 3.081 39.885.455 79.996 2.386 119.849.508 3.426-.161 5.492-2.168 6.272-4.596.93-1.14 1.627-2.529 1.669-4.388.969-43.37 9.684-94.266-.032-136.931z"/><path d="M203.222 193.375c-.237-.326-.195-.716-.538-1.01-7.01-5.987-17.351-9.745-26.59-12.372-3.07-2.685-8.546-2.388-10.313 2.787-5.456 15.985-9.596 32.423-14.3 48.645-1.949 6.726-3.947 15.761-7.443 23.501-1.33-18.873-4.341-38.496-9.027-55.846.525-.579 1.055-1.126 1.567-1.865 8.493-12.249-7.662-18.374-17.371-15.095-2.503.846-2.892 3.184-1.967 5.284-.059.186-.278.254-.278.471-.009 3.91 1.276 7.536 3.212 10.297-3.015 11.548-5.142 23.544-7.552 35.096-.022.102-.037.207-.057.309-.355.859-.91 1.554-.928 2.657-.013.732.037 1.454.031 2.185-1.264 6.296-2.53 12.609-3.52 18.978-5.222-11.945-7.507-28.843-9.489-35.916-3.816-13.606-7.362-27.144-13.964-39.697-.007-.012-.02-.012-.026-.023-1.501-2.676-4.866-4.563-8.469-2.994-13.573 5.912-27.002 12.316-40.326 18.774-7.453 3.612-17.891 7.143-22.954 14.314-2.225.612-4.222 2.32-4.574 5.17-6.689 53.836-11.205 110.868-6.238 164.999.131 1.446.766 2.487 1.619 3.189.564 1.236 1.488 2.323 3.157 2.541 53.853 7.072 110.84 5.224 165.04 2.861 3.522-.153 5.516-2.495 6.126-5.158.048-.181.225-.208.256-.405 8.627-55.02-20.668-142.787 25.114-185.404 2.201-2.051 1.523-4.65-.198-6.273z"/></symbol><symbol id="hospital-buildings" viewBox="0 0 94.505 94.505"><path d="M89.217 72.686c.111-.332.174-.688.174-1.058V32.771a3.336 3.336 0 0 0-3.336-3.335H67.488v41.359c0 .664-.12 1.299-.332 1.891h-2.178c.111-.332.174-.688.174-1.058V18.261a3.336 3.336 0 0 0-3.336-3.335H32.687a3.335 3.335 0 0 0-3.335 3.335v53.367c0 .37.063.726.174 1.058h-2.177a5.594 5.594 0 0 1-.332-1.891V29.436H8.895a3.335 3.335 0 0 0-3.335 3.335v38.857c0 .37.063.726.173 1.058H0v6.894h94.505v-6.894h-5.288zM15.565 59.064h-4.781v-4.78h4.781v4.78zm0-8.393h-4.781V45.89h4.781v4.781zm0-8.116h-4.781v-4.781h4.781v4.781zm7.45 16.509h-4.781v-4.78h4.781v4.78zm0-8.393h-4.781V45.89h4.781v4.781zm0-8.116h-4.781v-4.781h4.781v4.781zm31.659 29.908H40.637V54.951h14.037v17.512zm-7.422-32.522c-6.493 0-11.757-5.264-11.757-11.757 0-6.494 5.265-11.758 11.757-11.758 6.494 0 11.758 5.264 11.758 11.758 0 6.494-5.264 11.757-11.758 11.757zm30.353 19.123h-4.78v-4.78h4.78v4.78zm0-8.393h-4.78V45.89h4.78v4.781zm0-8.116h-4.78v-4.781h4.78v4.781zm7.449 16.509h-4.78v-4.78h4.78v4.78zm0-8.393h-4.78V45.89h4.78v4.781zm0-8.116h-4.78v-4.781h4.78v4.781zM50.17 25.266h4.503v5.836H50.17v4.505h-5.836v-4.505h-4.503v-5.836h4.503v-4.503h5.836v4.503z"/></symbol><symbol id="isyaryo" viewBox="0 0 565.701 565.701"><path d="M47.567 164.346c0-37.285 30.225-67.504 67.504-67.504s67.504 30.228 67.504 67.504c0 37.279-30.225 67.501-67.504 67.501s-67.504-30.222-67.504-67.501zm403.07 67.501c37.273 0 67.501-30.222 67.501-67.501 0-37.285-30.228-67.504-67.501-67.504-37.279 0-67.507 30.228-67.507 67.504 0 37.279 30.227 67.501 67.507 67.501zm115.064 76.411v70.072l-.484-.006-4.521 2.294c-2.199 1.123-36.907 18.098-96.824 19.162-30.057 40.631-98.231 69.079-177.377 69.079-79.266 0-147.532-28.531-177.523-69.269-13.134-.531-27.26-1.844-42.327-4.196l-18.515-3.381a435.57 435.57 0 0 1-43.113-11.077l-4.835-1.513L0 378.33v-70.072c0-40.024 27.405-73.695 64.41-83.469 13.293 12.401 31.076 20.059 50.655 20.059s37.356-7.658 50.655-20.059c15.439 4.079 29.093 12.425 39.874 23.555 24.639-6.777 52.03-10.592 80.895-10.592 26.581 0 51.927 3.215 75.014 9.014 10.568-10.362 23.738-18.087 38.468-21.977 13.299 12.401 31.073 20.059 50.655 20.059 19.576 0 37.355-7.658 50.655-20.059 28.773 7.602 51.672 29.675 60.461 57.929l3.6 17.928c.235 2.505.359 5.046.359 7.612zm-119.539 91.381c-13.601-.485-28.254-1.797-43.946-4.244l-18.519-3.381a438.18 438.18 0 0 1-43.119-11.089l-4.829-1.513-.184-1.088v-70.066c0-18.418 5.864-35.443 15.723-49.461-20.108-4.407-41.942-6.851-64.787-6.851-25.301 0-49.373 2.976-71.222 8.328 4.631 6.871 8.399 14.363 10.917 22.443l3.603 17.928c.225 2.512.346 5.053.346 7.612v70.072l-.485-.006-4.522 2.294c-2.222 1.123-37.418 18.358-98.154 19.186 29.912 32.557 90.166 54.87 159.517 54.87 69.451.001 129.782-22.389 159.661-55.034z"/></symbol><symbol id="map" viewBox="0 0 296.999 296.999"><path d="M141.914 185.802a9.952 9.952 0 0 0 6.587 2.486 9.95 9.95 0 0 0 6.587-2.486c2.385-2.101 58.391-52.021 58.391-103.793 0-35.842-29.148-65.002-64.977-65.002-35.83 0-64.979 29.16-64.979 65.002-.002 51.772 56.006 101.692 58.391 103.793zm6.587-120.777c9.302 0 16.845 7.602 16.845 16.984 0 9.381-7.543 16.984-16.845 16.984-9.305 0-16.847-7.604-16.847-16.984 0-9.382 7.542-16.984 16.847-16.984z"/><path d="M273.357 185.773l-7.527-26.377a9.966 9.966 0 0 0-9.583-7.232h-53.719a225.332 225.332 0 0 1-6.158 8.699c-15.057 20.23-30.364 33.914-32.061 35.41a23.904 23.904 0 0 1-15.808 5.967 23.91 23.91 0 0 1-15.81-5.969c-1.695-1.494-17.004-15.18-32.06-35.408a226.109 226.109 0 0 1-6.158-8.699h-53.72a9.966 9.966 0 0 0-9.583 7.232l-8.971 31.436 200.529 36.73 50.629-41.789zM296.617 267.291l-19.23-67.396-95.412 80.098h105.06a9.964 9.964 0 0 0 9.582-12.702zM48.793 209.888l-30.44-5.576-17.97 62.979a9.968 9.968 0 0 0 9.583 12.701h38.827v-70.104zM62.746 212.445v67.547h97.527l48.584-40.785z"/></symbol><symbol id="medical-malpractice-issues" viewBox="0 0 97.301 97.302"><path d="M51.583 45.473c-10.849 2.372-16.271-2.68-16.553-2.95a3.532 3.532 0 0 0-5.018 4.975c.271.276 5.706 5.671 16.019 5.671 2.144 0 4.499-.231 7.062-.793a3.533 3.533 0 0 0-1.51-6.903z"/><circle cx="19.542" cy="36.266" r="7.948"/><path d="M93.032 68.812L78.147 62.8a4.354 4.354 0 0 0-1.621-.314h-3.793v-.824c0-.422-.109-.814-.291-1.165l14.032 3.829a4.21 4.21 0 0 0 2.216-8.119l-18.484-5.046c-.367-.1-.728-.1-1.13-.098l-12.601.012a4.795 4.795 0 0 1-3.391 2.826 29.48 29.48 0 0 1-6.292.686c-10.229 0-17.198-5.469-17.489-5.702a4.766 4.766 0 0 1-1.777-3.215 4.765 4.765 0 0 1 1.017-3.534 4.778 4.778 0 0 1 3.757-1.809c1.074 0 2.131.367 2.976 1.034.142.11 2.877 2.199 7.226 3.151l-7.761-5.004c-2.736-1.766-6.12-.547-8.106 1.332 0 0-.664.567-1.13 1.326-.446.726-.794 1.631-.794 1.631l-.011.022c-.899 2.602-.61 6.175 2.136 7.947l14.744 9.508c.175.113.354.215.532.305 0 .027-.008.055-.008.082v.824h-4.193l-19.614-13.61c.097-.106.19-.22.27-.347a2.46 2.46 0 0 0-.78-3.389l-6.677-4.182a2.453 2.453 0 0 0-3.327.698c-1.888-.923-4.214-.372-5.449 1.407a4.329 4.329 0 0 0 1.089 6.025l30.665 21.285a4.32 4.32 0 0 0 2.468.772h5.717a2.571 2.571 0 0 0 2.407 1.684h5.439V93.15H47.47a2.075 2.075 0 0 0 0 4.151h20.232a2.075 2.075 0 1 0 0-4.151h-2.983V72.828h5.438a2.571 2.571 0 0 0 2.408-1.684h3.119l14.105 5.697a4.33 4.33 0 0 0 3.243-8.029z"/><path d="M37.083 37.846c7.871 0 12.233-2.105 15.077-4.597v5.456c-.254 1.096-.72 3.132-1.27 5.574.211-.042.419-.076.63-.122a4.82 4.82 0 0 1 1.033-.112 4.85 4.85 0 0 1 4.708 3.791c.14.643.144 1.283.032 1.893l11.989-.06c.527 0 .989.062 1.475.192l1.756.48a367.793 367.793 0 0 0-2.601-11.613v-6.485c1.287 2.681 2.091 6.522 2.009 12.41a3.367 3.367 0 0 0 3.318 3.413h.049a3.363 3.363 0 0 0 3.363-3.319c.225-16.004-7.793-23.512-15.5-26.364-.008-.002-.016-.002-.021-.004l-2.097 2.199-2.159-2.175a10.031 10.031 0 0 0-3.404 1.565c-.029.016-2.987 2.183-5.058 5.072-2.41 3.259-4.491 6.072-13.332 6.072a3.367 3.367 0 1 0 .003 6.734zM61.164 17.722a8.128 8.128 0 0 0 8.128-8.127 8.024 8.024 0 0 0-1.725-4.965h-2.628V3.397h1.444a8.17 8.17 0 0 0-1.654-1.092A3.918 3.918 0 0 0 61.166 0a3.923 3.923 0 0 0-3.562 2.302 8.122 8.122 0 0 0-1.659 1.095h1.65V4.63H54.76a8.058 8.058 0 0 0-1.722 4.965 8.127 8.127 0 0 0 8.126 8.127zm.002-16.008a2.21 2.21 0 0 1 0 4.416 2.209 2.209 0 0 1 0-4.416z"/></symbol><symbol id="medical-records" viewBox="0 0 489.9 489.9"><path d="M328.2 0H49.4v489.9h391.1V112.3L328.2 0zM122.7 120.5H154V89.6c0-13.9 11.2-25.1 25.1-25.1 13.9 0 25.1 11.2 25.1 25.1v30.9h31.3c13.9 0 25.1 11.2 25.1 25.1 0 13.9-11.2 25.1-25.1 25.1h-31.3v31.2c0 13.9-11.2 25.1-25.1 25.1-13.9 0-25.1-11.2-25.1-25.1v-31.3h-31.3c-13.9 0-25.1-11.2-25.1-25.1 0-13.8 11.3-25 25.1-25zm259.2 297.8H108.1c-5.4 0-10.1-4.3-10.1-10.1 0-5.4 4.3-10.1 10.1-10.1h273.3c5.4 0 10.1 4.3 10.1 10.1.1 5.8-4.2 10.1-9.6 10.1zm0-85.5H108.1c-5.4 0-10.1-4.3-10.1-10.1 0-5.4 4.3-10.1 10.1-10.1h273.3c5.4 0 10.1 4.3 10.1 10.1.1 5.4-4.2 10.1-9.6 10.1zM308 132.1V19.8l112.8 112.4H308v-.1z"/></symbol><symbol id="real-estate-trouble" viewBox="0 0 453.453 453.453"><path d="M442.776 172.878L237.165 3.742a16.434 16.434 0 0 0-20.879 0L148.261 59.7V43.549c0-8.284-6.716-15-15-15h-71.95c-8.284 0-15 6.716-15 15v100.016l-35.636 29.314a16.433 16.433 0 0 0 10.44 29.125h11.417v236.431c0 8.294 6.724 15.018 15.018 15.018h109.01c8.294 0 15.018-6.724 15.018-15.018v-80.589c0-14.307 8.961-26.393 19.566-26.393h71.166c10.605 0 19.566 12.086 19.566 26.393v80.589c0 8.294 6.724 15.018 15.018 15.018h109.01c8.294 0 15.018-6.724 15.018-15.018V202.003h11.417a16.433 16.433 0 0 0 10.437-29.125z"/></symbol><symbol id="rosai" viewBox="0 0 97.084 97.083"><path d="M51.471 49.091c1.76 0 3.696-.19 5.801-.652a2.903 2.903 0 0 0-1.24-5.671c-8.914 1.949-13.371-2.202-13.6-2.424a2.902 2.902 0 0 0-4.123 4.087c.223.228 4.688 4.66 13.162 4.66z"/><circle cx="30.339" cy="35.638" r="6.337"/><path d="M96.276 83.284V66.707a3.826 3.826 0 0 0-3.595-3.812 3.174 3.174 0 0 0 2.106-2.985 3.187 3.187 0 0 0-3.187-3.187H49.796L19.309 40.494a3.186 3.186 0 0 0-2.858 5.695l28.448 15.207H24.153a1.91 1.91 0 0 0-1.911 1.911v1.063a1.91 1.91 0 0 0 1.911 1.91h6.724a4.01 4.01 0 0 0-.025.426v16.332a2.86 2.86 0 0 0-1.088 2.236 2.875 2.875 0 1 0 4.912-2.027v-3.584h57.778v3.35a2.857 2.857 0 0 0-1.12 2.262 2.875 2.875 0 1 0 5.75 0 2.864 2.864 0 0 0-.808-1.991zm-3.823-6.17H34.675V66.707h57.778v10.407z"/><path d="M85.676 49.117s-15.518-1.719-15.838-1.718l-4.396.021c-1.296-12.418-13.306-8.331-13.306-8.331-4.685 1.744-7.96.243-7.96.243l.001.001-1.72-1.109c-2.181-1.408-4.88-.437-6.464 1.063 0 0-.53.452-.901 1.058-.355.578-.633 1.301-.633 1.301l-.008.017c-.527 1.523-.539 3.464.357 4.947-2.313.341-2.873-.278-4.797-2.448-1.121-1.293-2.789-2.29-4.403-3.255-2.197-1.313-4.468-2.672-5.35-4.766-.655-1.519-.389-3.169-.106-4.916.215-1.333.426-2.709.219-4.058h.319v-2.324h.503c.94 0 1.702-.763 1.702-1.703v-8.194c0-.939-.761-1.703-1.702-1.703h-1.342c.014-.129.022-.264.022-.404 0-.104-.008-.203-.014-.301h.354a2.228 2.228 0 0 0 2.226-2.225h-.758a1.47 1.47 0 0 1-1.467 1.467h-.503c-.172-.49-.476-.788-.85-.788s-.675.298-.85.788h-5.683V8.765h-2.271v3.015H2.225c-.81 0-1.466-.658-1.466-1.467H0c0 1.227.999 2.225 2.226 2.225h7.831l-.004 67.858H8.564c-2.414 0-4.478 1.505-5.318 3.624a2.193 2.193 0 0 0-1.564 2.097 2.2 2.2 0 1 0 3.802-1.505 3.434 3.434 0 0 1 3.08-1.937H13.693c1.356 0 2.52.795 3.08 1.937-.37.394-.601.921-.601 1.505a2.2 2.2 0 1 0 4.403 0c0-.992-.662-1.822-1.564-2.097-.84-2.119-2.904-3.624-5.317-3.624h-1.361v-4.553l-.002.002V12.537h5.536c-.008.098-.016.196-.016.301 0 .141.008.275.022.404h-1.34c-.94 0-1.703.764-1.703 1.703v8.194c0 .94.762 1.703 1.703 1.703h.472v1.025h1.292v-1.025H19.4v2.324h.175c.223 1.26.005 2.617-.206 3.931-.288 1.784-.585 3.627.159 5.354.981 2.332 3.368 3.758 5.675 5.137 1.631.977 3.173 1.897 4.212 3.097 1.739 1.962 2.569 2.802 4.352 2.802.453 0 .979-.06 1.587-.163.233.247.497.476.804.675 0 0 10.392 7.161 16.939 7.38l31.701-.021c1.476 0 2.827-.632 3.233-2.123a3.356 3.356 0 0 0-2.355-4.118zm-67.048-36.58h.466c.009.096.022.188.022.301 0 .149-.011.284-.028.404h-.453a2.735 2.735 0 0 1-.028-.404c0-.114.013-.206.021-.301zm.259 8.614a1.791 1.791 0 0 1-1.791-1.791c0-.988 1.791-3.791 1.791-3.791s1.791 2.803 1.791 3.791a1.792 1.792 0 0 1-1.791 1.791zm40.975 26.836a3.984 3.984 0 0 1-2.521 1.755c-2 .438-3.979.66-5.887.66-8.576 0-13.134-4.38-13.626-4.879a3.971 3.971 0 0 1-.939-1.584c-.02-.055-.034-.111-.05-.169a3.699 3.699 0 0 1-.107-.504c-.006-.043-.022-.084-.027-.128-.009-.074.001-.147-.004-.222-.004-.082-.022-.16-.021-.243 0-.049.013-.096.015-.145.006-.131.023-.259.042-.388a3.92 3.92 0 0 1 .074-.406c.02-.074.045-.147.069-.222a3.98 3.98 0 0 1 1.002-1.667 3.994 3.994 0 0 1 2.811-1.148c1.069 0 2.077.417 2.835 1.173.092.089 2.657 2.507 7.906 2.507 1.336 0 2.746-.16 4.191-.477a4.02 4.02 0 0 1 .859-.092 4.033 4.033 0 0 1 3.918 3.155 3.985 3.985 0 0 1-.54 3.024z"/></symbol><symbol id="site-map" viewBox="0 0 104 104"><path d="M98 66h-7.121c0-28.161-15.77-37.674-24.879-40.819v-5.848a6 6 0 0 0-6-6H42.666a6 6 0 0 0-6 6v6.164c-9.207 3.447-24 13.227-24 40.503H6a6 6 0 0 0-6 6v12.667a6 6 0 0 0 6 6h17.334c3.313 0 6-2.688 6-6V72c0-3.313-2.688-6-6-6h-6.668c0-23.872 11.848-32.916 20-36.319V32c0 3.313 2.688 6 6 6h6.668v28h-6.668a6 6 0 0 0-6 6v12.667c0 3.312 2.688 6 6 6H60a6 6 0 0 0 6-6V72a6 6 0 0 0-6-6h-6.666V38H60a6 6 0 0 0 6-6v-2.673C74.148 32.438 86.879 41.255 86.879 66h-6.213c-3.312 0-6 2.687-6 6v12.667c0 3.312 2.688 6 6 6H98a6 6 0 0 0 6-6V72a6 6 0 0 0-6-6z"/></symbol><symbol id="telephone-operator-imai" viewBox="0 0 974.034 974.034"><path d="M949.123 752.235c-2.293-1.855-24.005-20.188-45.617-64.878-38.726-80.075-47.023-180.69-47.167-250.996-.161-79.552-16.917-148.163-49.802-203.927-27.454-46.555-66.003-84.114-114.576-111.633-83.578-47.351-173.398-51.03-198.937-51.03-3.046 0-5.31.049-6.706.091a228.305 228.305 0 0 0-6.764-.091c-16.305 0-59.706 1.451-110.444 14.892-64.511 17.087-118.176 46.933-159.506 88.705-63.086 63.762-94.473 152.387-93.289 263.413.729 68.354-6.71 166.932-46.286 248.378-22.359 46.017-45.216 65.927-47.295 67.679L0 769.442l14.128 25.466c2.198 3.963 55.124 97.058 166.411 97.058 41.078 0 84.359-12.996 128.911-38.676 31.034 18.588 96.619 50.974 176.876 50.974s145.843-32.385 176.876-50.974c44.55 25.678 87.83 38.674 128.91 38.676h.008c111.294 0 164.209-93.1 166.406-97.062l15.508-25.902-24.911-16.767zM330.76 788.55l.387-.506c-8.2-6.269-23.529-24.836-34.071-78.744-7.305-37.354-11.016-84.995-11.031-141.603-.015-56.851 3.771-111.372 6.984-147.378 27.754 10.626 67.53 24.79 113.748 38.104C510 488.159 599.345 500.756 673.019 496.004c2.333 27.737 5.044 70.272 4.689 115.314-.233 29.809-1.716 54.752-3.99 75.641-7.679 5.884-16.724 11.444-27.113 16.656-32.033 16.069-75.785 28.292-130.389 36.456v-3.979c0-18.226-14.773-33-33-33-18.226 0-33 14.774-33 33v78.238l36.556-3.961c66.774-7.236 122.312-19.685 165.6-37.079-4.02 7.746-7.82 12.547-10.777 15.477-9.582 6.759-73.453 49.496-155.268 49.496-81.903.001-147.029-43.721-155.567-49.713zm541.651 7.008c-23.618 20.18-50.634 30.411-80.297 30.408-25.19 0-52.458-7.375-81.369-21.965 11.387-21.884 19.783-50.053 25.255-84.77 11.139-12.084 19.748-25.246 25.749-39.437 26.322-62.233-6.273-121.638-19.748-142.136-2.38-46.521-6.389-79.906-6.637-81.94L731.259 422l-33.585 5.077c-87.179 13.182-195.898-10.033-271.754-31.825-83.914-24.107-147.245-51.924-147.865-52.198l-40.553-17.937-5.538 43.995c-.486 3.86-11.898 95.712-11.919 197.973-.023 111.771 13.332 190.198 40.635 237.526-28.457 14.181-55.31 21.354-80.141 21.354-29.658 0-56.672-10.231-80.294-30.411a149.551 149.551 0 0 1-14.021-13.69c11.601-13.755 26.149-34.077 40.412-62.298 16.871-33.38 30.14-71.506 39.44-113.317 11.429-51.383 16.892-108.637 16.236-170.173-.989-92.75 23.979-165.521 74.209-216.29 79.118-79.965 199.671-84.016 223.034-84.016 3.328 0 5.205.076 5.229.076l1.41.08 1.627-.077c.019-.001 1.866-.079 5.204-.079 21.457 0 96.87 3.062 166.401 42.455 86.619 49.074 130.664 135.968 130.912 258.27.128 63.187 6.063 121.42 17.641 173.085 9.439 42.129 22.66 80.127 39.293 112.938 13.678 26.983 27.604 46.37 38.915 59.62a149.51 149.51 0 0 1-13.776 13.42z"/><circle cx="385.244" cy="569.265" r="36.805"/><circle cx="574.162" cy="569.265" r="36.805"/></symbol><symbol id="telephone-operator" viewBox="0 0 31.082 31.082"><circle cx="18.718" cy="13.211" r="1.256"/><path d="M25.357 17.068h.246a2.17 2.17 0 0 0 2.169-2.17v-2.387c0-.825-.461-1.542-1.137-1.91-.023-3.389-1.012-6.036-2.941-7.866C21.78.921 19.038 0 15.541 0 12.044 0 9.3.92 7.387 2.735c-1.929 1.83-2.917 4.477-2.94 7.866a2.17 2.17 0 0 0-1.137 1.91v2.387a2.17 2.17 0 0 0 2.17 2.17H7s.316.671.502 1.057c-.052.354-.027.982-.401 1.536-.411.606-1.223 1.022-1.906 1.262-.067.023-.111.089-.108.16s.054.132.123.149c.308.074.636.108.966.096-.4.514-.915.997-1.581 1.378a.674.674 0 0 0-.01 1.165c.271.162.554.307.842.438a9.275 9.275 0 0 0-.691 3.498v.541a2.735 2.735 0 0 0 2.735 2.734h16.144a2.735 2.735 0 0 0 2.734-2.734v-.541a9.312 9.312 0 0 0-.686-3.502c.285-.13.565-.272.836-.434a.675.675 0 0 0-.01-1.165 5.378 5.378 0 0 1-1.582-1.378c.33.013.657-.021.965-.096a.162.162 0 0 0 .016-.309c-.684-.239-1.495-.655-1.906-1.262-.374-.554-.35-1.183-.4-1.536.186-.386.502-1.057.502-1.057h1.273zm-7.276-7.25c2.258.238 4.049.915 5.028 1.809.042.509.07 1.033.07 1.593 0 1.304-.294 2.453-.651 3.506-.135.402-.433 1.064-.99 1.933-1.644 2.552-4.347 3.839-5.998 3.839-1.649 0-4.292-1.328-5.996-3.839 1.212.571 2.573.782 3.809.854.305.559 1.068.955 1.963.955 1.165 0 2.106-.669 2.106-1.496 0-.826-.942-1.496-2.106-1.496-.858 0-1.594.364-1.924.889-1.77-.109-3.77-.521-4.98-1.983a9.828 9.828 0 0 1-.51-3.163c0-.317.012-.622.024-.922 2.156-.301 4.097-2.437 4.156-5.175 1.676 3.421 4.519 3.256 6.127 3.737a.316.316 0 0 0 .358-.471 2.725 2.725 0 0 0-.486-.57zm4.482-4.37c-1.562-2.008-3.924-3.027-7.023-3.027S10.08 3.44 8.519 5.448c-.979 1.26-1.625 2.9-1.931 4.894h-.835c.137-5.915 3.513-9.04 9.787-9.04s9.65 3.125 9.789 9.039h-.836c-.305-1.993-.951-3.633-1.93-4.893z"/><circle cx="12.364" cy="13.211" r="1.256"/></symbol><symbol id="traffic-accident" viewBox="0 0 466.015 466.015"><path d="M329.511 272.46h-2.582v-9.957c0-6.43-5.705-9.626-10.207-10.813l-7.089-13.331a4.002 4.002 0 0 0-3.031-2.091l-52.144-6.579-47.986-76.033a4 4 0 0 0-3.383-1.865H88.744a4 4 0 0 0-3.719 2.527L56.902 225.32H29.604c-12.113 0-19.061 6.947-19.061 19.061v28.143C4.627 273.144 0 278.162 0 284.241v10.344c0 6.496 5.285 11.781 11.781 11.781h35.574c2.169 19.159 18.466 34.098 38.194 34.098s36.026-14.939 38.195-34.098h93.802c2.169 19.159 18.465 34.098 38.192 34.098 19.73 0 36.029-14.939 38.198-34.098h35.573c6.495 0 11.779-5.286 11.779-11.782v-10.343c.002-6.496-5.282-11.781-11.777-11.781zM85.55 322.465c-11.274 0-20.447-9.173-20.447-20.449 0-11.275 9.173-20.449 20.447-20.449 11.275 0 20.448 9.173 20.448 20.449 0 11.275-9.173 20.449-20.448 20.449zm170.189 0c-11.273 0-20.445-9.173-20.445-20.449 0-11.275 9.172-20.449 20.445-20.449 11.276 0 20.451 9.173 20.451 20.448 0 11.276-9.174 20.45-20.451 20.45zM325.151 174.751c.802.11 1.617.166 2.424.166h.001c8.8 0 16.341-6.583 17.54-15.314l2.201-16.044a10.452 10.452 0 0 0-2.044-7.799 10.453 10.453 0 0 0-5.365-3.724 15.485 15.485 0 0 0-10.245-5.959 15.755 15.755 0 0 0-2.134-.146c-7.735 0-14.362 5.785-15.415 13.458l-2.113 15.399c-1.327 9.679 5.469 18.635 15.15 19.963zM459.338 218.199l-34.713-15.42a11.289 11.289 0 0 0-1.868-.79c-.151-.051-.301-.11-.454-.143a11.306 11.306 0 0 0-3.056-.436c-2.293 0-4.505.688-6.398 1.991l-.091.064-15.741 11.487-22.916-26.295 12.288-1.116a9.857 9.857 0 0 0 6.776-3.203c.256-.28 16.279-21.04 16.279-21.04a9.955 9.955 0 0 0 2.007-7.4 9.944 9.944 0 0 0-3.812-6.65 9.93 9.93 0 0 0-6.12-2.09 9.954 9.954 0 0 0-7.933 3.895l-13.02 16.862s-30.316 2.797-30.592 2.886a12.398 12.398 0 0 0-5.52 2.759l-10.389 9.054a12.326 12.326 0 0 0-3.864 6.271c-.169.375-4.642 41.256-4.645 41.334a10.746 10.746 0 0 0 2.021 6.83c.145.259 17.205 19.24 17.205 19.24.064.072.133.143.203.21a10.78 10.78 0 0 0 7.487 3.007c2.939 0 5.788-1.217 7.814-3.334l.201-.209c4.088-4.27 3.977-11.05-.219-15.191l-12.352-13.692.923-8.595 40.168 47.594-9.174 24.234a11.221 11.221 0 0 0-.31 8.486 11.202 11.202 0 0 0 5.817 6.366l.297.14a11.189 11.189 0 0 0 4.767 1.06c4.375 0 8.396-2.561 10.243-6.525.042-.09 12.214-32.231 12.214-32.231.255-.853.286-1.368.347-1.702.538-2.97-.075-5.971-1.779-8.461-.071-.105-12.459-14.958-12.459-14.958l21.761-16.39 29.224 12.982c1.472.663 3.031.999 4.637.999 4.436 0 8.48-2.615 10.287-6.628l.142-.309c2.556-5.678.014-12.378-5.683-14.943z"/><path d="M262.91 210.579l35.5 15a5.982 5.982 0 0 0 2.332.475 6 6 0 0 0 2.338-11.528l-35.5-15a6 6 0 0 0-4.67 11.053zM298.323 201.623a6 6 0 1 0 10.844-5.141l-32-67.5a6 6 0 0 0-10.844 5.141l32 67.5zM419.25 178.053c1.174 0 2.36-.344 3.4-1.06l37-25.5a6.001 6.001 0 0 0-6.811-9.881l-37 25.5a6 6 0 0 0 3.411 10.941zM436.469 182.678a6 6 0 0 0-2.448 11.748l24 5a6.003 6.003 0 0 0 7.097-4.65 6 6 0 0 0-4.65-7.098l-23.999-5z"/></symbol><symbol id="wills-and-inheritance" viewBox="0 0 476.379 476.378"><path d="M85.945 130.17a44.538 44.538 0 0 0 11.188 1.423c18.127 0 34.84-11.434 41.395-28.341 6.614-17.058 1.81-36.94-11.813-49.126-13.637-12.2-34.003-14.742-50.209-6.218C60.361 56.4 50.917 74.396 53.069 92.506c2.128 17.906 15.425 33.132 32.876 37.664zM364.299 130.17a44.552 44.552 0 0 0 11.189 1.423c18.125 0 34.834-11.438 41.387-28.341 6.635-17.105 1.781-37.042-11.916-49.22-13.686-12.167-34.08-14.636-50.264-6.039-16.055 8.527-25.42 26.465-23.275 44.512 2.129 17.908 15.426 33.134 32.879 37.665z"/><path d="M457.994 226.994c.689-6.456.82-12.94.92-19.426-.186-5.946-.279-11.967-1.221-17.854-1.15-9.168-3.312-18.345-6.781-26.922l-1.385-3.407a169.798 169.798 0 0 0-5.129-9.914c-3.861-6.281-8.336-12.049-13.607-17.211-1.734-1.597-3.422-3.188-5.201-4.577-1.727-1.458-3.535-2.708-5.264-3.958-2.24-1.46-4.48-2.906-6.83-4.188-6.969 7.627-16.209 13.067-26.281 15.391-10.398 2.399-21.482 1.462-31.32-2.679a51.582 51.582 0 0 1-18.125-12.854c-.627.337-1.254.685-1.883 1.062-1.732.96-3.445 2.111-5.229 3.27-1.729 1.25-3.539 2.498-5.268 3.956-1.781 1.39-3.467 2.979-5.203 4.575-5.279 5.157-9.758 10.93-13.619 17.212a168.051 168.051 0 0 0-5.131 9.916l-1.385 3.408c-3.471 8.58-5.627 17.754-6.775 26.924-.947 5.885-1.027 11.909-1.219 17.853.082 5.217.262 10.398.592 15.605.24 3.797.74 7.58 1.154 11.361.021.2.062.394.094.591-5.373-.88-10.463-3.45-15.156-6.111a141.725 141.725 0 0 1-13.939-9.05c-4.389-3.222-8.373-7.013-13.256-9.506-4.439-2.268-9.355-3.551-14.35-3.596v-.003a1.705 1.705 0 0 1-.143 0v.003c-4.994.045-9.91 1.328-14.35 3.596-5.096 2.602-9.253 6.604-13.854 9.943-4.576 3.322-9.35 6.418-14.303 9.151-2.459 1.357-4.983 2.603-7.593 3.645-2.591 1.035-5.444 2.021-8.261 2.097.045-.251.094-.502.123-.759.402-3.667.895-7.336 1.133-11.018.342-5.322.529-10.617.613-15.949-.192-5.944-.273-11.967-1.218-17.853-1.149-9.17-3.308-18.345-6.778-26.924l-1.383-3.408a168.67 168.67 0 0 0-5.132-9.916c-3.86-6.282-8.339-12.056-13.618-17.212-1.736-1.596-3.423-3.186-5.203-4.575-1.729-1.458-3.539-2.706-5.268-3.956-1.782-1.159-3.497-2.309-5.228-3.27a46.692 46.692 0 0 0-1.883-1.062c-6.923 7.63-16.108 13.096-26.14 15.469-10.393 2.459-21.492 1.579-31.359-2.516a51.571 51.571 0 0 1-18.229-12.81c-2.35 1.282-4.59 2.728-6.831 4.188-1.728 1.25-3.538 2.5-5.264 3.958-1.779 1.39-3.464 2.98-5.2 4.577-5.271 5.162-9.748 10.93-13.607 17.211a171.717 171.717 0 0 0-5.131 9.914l-1.383 3.407c-3.471 8.578-5.633 17.753-6.78 26.922-.946 5.886-1.036 11.91-1.222 17.854.098 6.66.258 13.313.974 19.941C6.073 231.067 0 239.548 0 249.425v172.053c0 3.727 3.111 6.837 6.838 6.837s6.837-3.111 6.837-6.837V249.424c0-3.455 1.757-6.509 4.425-8.312 3.449 4.49 9.5 6.287 14.838 4.401.391.917.642 1.893.744 2.885.09.885.031 1.76.24 2.632a6.888 6.888 0 0 0 2.693 3.974c3.047 2.164 7.398 1.405 9.547-1.649a51.146 51.146 0 0 0 8.67 22.481l6.51 142.487c.367 8.043 7.155 14.604 15.212 14.67 8.143.067 15.091-6.53 15.497-14.655l5.07-108.871 4.881 108.844c.362 8.043 7.145 14.608 15.201 14.683 8.142.075 15.098-6.518 15.509-14.642l6.792-143.206c6.984-10.446 9.811-23.256 8.094-35.688l-10.248-71.64c.072.092.146.182.218.275.864 1.267 1.837 2.468 2.62 3.859l1.257 2.031 1.133 2.156c3.142 5.873 5.298 12.354 6.771 18.834 1.272 4.594 1.772 9.426 2.4 14.138.386 4.621.667 9.22.837 13.854.113 3.125-.012 6.266-.039 9.392l-.005.632c-.054 6.138 4.105 11.319 9.773 12.833 9.833 14.485 29.933 9.093 43.36 3.726l-2.959 54.188c-.361 6.669 1.217 12.526 4.23 17.968l4.877 101.686c.262 5.417 4.881 9.94 10.304 10.088 5.618.151 10.568-4.45 10.878-10.053l4.115-79.512 4.116 79.512c.305 5.499 5.086 10.056 10.601 10.056 5.53 0 10.313-4.572 10.583-10.091l4.876-101.686c3.015-5.44 4.592-11.298 4.229-17.968l-2.959-54.188c13.771 5.505 34.266 10.809 43.869-4.498 4.545-2.11 7.684-6.724 7.635-12.06l-.004-.632c-.027-3.126-.152-6.268-.039-9.392.17-4.634.453-9.232.836-13.854.625-4.711 1.131-9.544 2.4-14.138 1.477-6.48 3.631-12.961 6.771-18.834l1.133-2.156 1.258-2.031c.783-1.391 1.756-2.593 2.619-3.859.072-.093.146-.183.219-.275l-10.25 71.64a54.117 54.117 0 0 0-.479 6.135c-6.867 21.489-12.365 43.455-15.961 65.735-1.734 10.755-3.02 21.586-3.736 32.458a291.435 291.435 0 0 0-.631 16.614c-.021 2.466.195 4.707 1.859 6.666a7.914 7.914 0 0 0 5.988 2.77h26.244l2.301 48.518c.412 8.125 7.367 14.717 15.51 14.642 8.057-.074 14.838-6.64 15.199-14.683l2.176-48.477h5.518l2.26 48.504c.404 8.126 7.354 14.724 15.498 14.655 8.055-.066 14.844-6.627 15.211-14.67l2.221-48.491h25.631a7.923 7.923 0 0 0 6.549-3.512c1.65-2.488 1.318-5.428 1.27-8.27a300.66 300.66 0 0 0-.979-19.379c-1.035-12.575-2.801-25.087-5.133-37.485-3.053-16.229-7.068-32.271-11.848-48.074 1.66 3.354 5.852 4.773 9.199 3.086a6.899 6.899 0 0 0 3.348-3.751c.738-2.012.344-4.178 1.186-6.203a13.157 13.157 0 0 0 11.646-5.885c4.379 1.075 7.643 5.022 7.643 9.729v172.055c0 3.727 3.111 6.838 6.838 6.838s6.838-3.112 6.838-6.838V250.088c0-11.239-7.867-20.671-18.385-23.094zM46.246 239.456a50.714 50.714 0 0 0-.23 1.955 23.743 23.743 0 0 0-4.329-7.409c.021-.316.04-.632.039-.953l-.007-.694c-.025-3.126-.15-6.267-.037-9.392.17-4.634.453-9.231.836-13.853.635-4.712 1.135-9.541 2.404-14.136 1.475-6.48 3.635-12.962 6.775-18.835l1.135-2.157 1.257-2.032c.69-1.226 1.526-2.307 2.306-3.415l-10.149 70.921zm382.725 10.632c0 .311.025.611.064.91a493.623 493.623 0 0 0-2.227-7.07 52.266 52.266 0 0 0-.436-4.474l-10.148-70.92c.781 1.107 1.615 2.188 2.309 3.415l1.256 2.032 1.137 2.157c3.141 5.873 5.301 12.354 6.773 18.835 1.271 4.595 1.77 9.425 2.404 14.136.381 4.621.666 9.219.836 13.853.113 3.125-.01 6.265-.037 9.392l-.008.694a13.082 13.082 0 0 0 1.145 5.395 23.567 23.567 0 0 0-3.068 11.645z"/><path d="M236.954 204.58c.058 0 .114-.001.171-.003 10.697.272 21.135-5.893 26.514-15.029 5.491-9.323 5.643-21.079.36-30.523-5.384-9.625-15.777-15.667-26.802-15.656v-.002a1.705 1.705 0 0 1-.143 0v.002c-11.023-.011-21.418 6.032-26.801 15.656-5.283 9.443-5.131 21.2.358 30.523 5.432 9.221 15.644 15.032 26.343 15.032z"/></symbol></svg>