<?xml version="1.0" encoding="utf-8"?>
<!-- Generator: Adobe Illustrator 16.0.3, SVG Export Plug-In . SVG Version: 6.00 Build 0)  -->
<!DOCTYPE svg PUBLIC "-//W3C//DTD SVG 1.1//EN" "http://www.w3.org/Graphics/SVG/1.1/DTD/svg11.dtd">
<svg version="1.1" id="レイヤー_1" xmlns="http://www.w3.org/2000/svg" xmlns:xlink="http://www.w3.org/1999/xlink" x="0px"
	 y="0px" width="116px" height="116px" viewBox="0 0 116 116" enable-background="new 0 0 116 116" xml:space="preserve">
<g>
	<g>
		<path d="M78.975,48.237c-0.654,1.526-2.399,2.523-3.801,3.303c-1.838,0.997-3.708,1.589-5.795,1.589
			c-2.898,0-5.515-1.184-8.164-2.15c-1.901-0.685-3.739-1.526-5.453-2.586c-5.297-3.271-11.685-9.658-14.956-14.956
			c-1.06-1.713-1.901-3.552-2.586-5.452c-0.966-2.648-2.15-5.266-2.15-8.164c0-2.087,0.592-3.957,1.589-5.795
			c0.779-1.402,1.776-3.147,3.303-3.802c1.028-0.467,3.209-0.966,4.331-0.966c0.218,0,0.437,0,0.655,0.094
			c0.654,0.218,1.339,1.745,1.651,2.368c0.997,1.775,1.963,3.583,2.991,5.328c0.499,0.81,1.433,1.807,1.433,2.772
			c0,1.901-5.64,4.674-5.64,6.356c0,0.842,0.779,1.933,1.215,2.68c3.147,5.671,7.073,9.597,12.744,12.744
			c0.748,0.437,1.838,1.215,2.68,1.215c1.683,0,4.456-5.64,6.356-5.64c0.966,0,1.963,0.935,2.773,1.434
			c1.745,1.028,3.552,1.994,5.328,2.991c0.623,0.312,2.15,0.997,2.368,1.651c0.093,0.218,0.093,0.437,0.093,0.654
			C79.94,45.028,79.442,47.209,78.975,48.237z"/>
	</g>
	<rect x="16.243" y="61.73" fill="none" width="83.515" height="45.012"/>
	<text transform="matrix(1 0 0 1 27.166 77.5703)"><tspan x="0" y="0" font-family="'KozGoPr6N-Regular-90ms-RKSJ-H'" font-size="18" letter-spacing="3">電話で</tspan><tspan x="-10.917" y="25" font-family="'KozGoPr6N-Regular-90ms-RKSJ-H'" font-size="18" letter-spacing="3">相談予約</tspan></text>
</g>
<rect fill="none" width="116" height="116"/>
</svg>
