<?xml version="1.0" encoding="utf-8"?>
<!-- Generator: Adobe Illustrator 16.0.3, SVG Export Plug-In . SVG Version: 6.00 Build 0)  -->
<!DOCTYPE svg PUBLIC "-//W3C//DTD SVG 1.1//EN" "http://www.w3.org/Graphics/SVG/1.1/DTD/svg11.dtd">
<svg version="1.1" id="レイヤー_1" xmlns="http://www.w3.org/2000/svg" xmlns:xlink="http://www.w3.org/1999/xlink" x="0px"
	 y="0px" width="116px" height="116px" viewBox="0 0 116 116" enable-background="new 0 0 116 116" xml:space="preserve">
<g>
	<rect x="16.242" y="61.73" fill="none" width="83.516" height="45.012"/>
	<text transform="matrix(1 0 0 1 20.083 77.5703)"><tspan x="0" y="0" font-family="'KozGoPr6N-Regular-90ms-RKSJ-H'" font-size="18">トッ</tspan><tspan x="36" y="0" font-family="'KozGoPr6N-Regular-90ms-RKSJ-H'" font-size="18" letter-spacing="3">プへ</tspan><tspan x="18" y="25" font-family="'KozGoPr6N-Regular-90ms-RKSJ-H'" font-size="18" letter-spacing="3">戻る</tspan></text>
	<g>
		<path d="M85.364,44.116l-2.796,2.799c-0.336,0.336-0.785,0.558-1.29,0.558c-0.445,0-0.951-0.222-1.286-0.558L58.007,24.928
			L36.021,46.915c-0.336,0.336-0.842,0.558-1.287,0.558c-0.447,0-0.953-0.222-1.289-0.558l-2.797-2.799
			c-0.335-0.336-0.56-0.838-0.56-1.286c0-0.447,0.225-0.95,0.56-1.286L56.72,15.473c0.336-0.337,0.839-0.559,1.287-0.559
			c0.447,0,0.949,0.222,1.285,0.559l26.072,26.071c0.336,0.336,0.56,0.839,0.56,1.286C85.924,43.278,85.7,43.78,85.364,44.116z"/>
	</g>
</g>
<rect fill="none" width="116" height="116"/>
</svg>
