<?xml version="1.0" encoding="utf-8"?>
<!-- Generator: Adobe Illustrator 16.0.3, SVG Export Plug-In . SVG Version: 6.00 Build 0)  -->
<!DOCTYPE svg PUBLIC "-//W3C//DTD SVG 1.1//EN" "http://www.w3.org/Graphics/SVG/1.1/DTD/svg11.dtd">
<svg version="1.1" id="レイヤー_1" xmlns="http://www.w3.org/2000/svg" xmlns:xlink="http://www.w3.org/1999/xlink" x="0px"
	 y="0px" width="116px" height="116px" viewBox="0 0 116 116" enable-background="new 0 0 116 116" xml:space="preserve">
<g>
	<g>
		<path d="M80.596,22.781c-4.861,3.364-9.752,6.729-14.582,10.126c-2.025,1.402-5.453,4.269-7.977,4.269h-0.031h-0.031
			c-2.523,0-5.951-2.866-7.977-4.269c-4.83-3.396-9.721-6.762-14.551-10.126c-2.213-1.496-5.359-5.017-5.359-7.853
			c0-3.054,1.651-5.671,4.985-5.671h45.865c2.711,0,4.985,2.243,4.985,4.985C85.924,17.733,83.338,20.88,80.596,22.781z
			 M85.924,48.144c0,2.742-2.243,4.985-4.985,4.985H35.073c-2.742,0-4.985-2.243-4.985-4.985V23.404
			c0.935,1.028,1.994,1.932,3.146,2.711c5.173,3.521,10.407,7.041,15.486,10.749c2.617,1.932,5.857,4.3,9.254,4.3h0.031h0.031
			c3.396,0,6.637-2.368,9.254-4.3c5.079-3.677,10.313-7.229,15.518-10.749c1.121-0.779,2.181-1.683,3.115-2.711V48.144z"/>
	</g>
	<rect x="16.242" y="61.73" fill="none" width="83.516" height="45.012"/>
	<text transform="matrix(1 0 0 1 16.2422 77.5703)"><tspan x="0" y="0" font-family="'KozGoPr6N-Regular-90ms-RKSJ-H'" font-size="18" letter-spacing="1">We</tspan><tspan x="29.124" y="0" font-family="'KozGoPr6N-Regular-90ms-RKSJ-H'" font-size="18" letter-spacing="5">b</tspan><tspan x="46.063" y="0" font-family="'KozGoPr6N-Regular-90ms-RKSJ-H'" font-size="18" letter-spacing="1">から</tspan><tspan x="0" y="25" font-family="'KozGoPr6N-Regular-90ms-RKSJ-H'" font-size="18" letter-spacing="3">相談予約</tspan></text>
</g>
<rect fill="none" width="116" height="116"/>
</svg>
